HIERARCHY
ROOT Hips
{
	OFFSET 0.000000 0.000000 0.000000
	CHANNELS 6 Xposition Yposition Zposition Zrotation Yrotation Xrotation 
	JOINT LHipJoint
	{
		OFFSET 0.000000 0.000000 0.000000
		CHANNELS 3 Zrotation Yrotation Xrotation
		JOINT LeftUpLeg
		{
			OFFSET 1.363060 -1.794630 0.839290
			CHANNELS 3 Zrotation Yrotation Xrotation
			JOINT LeftLeg
			{
				OFFSET 2.448110 -6.726130 0.000000
				CHANNELS 3 Zrotation Yrotation Xrotation
				JOINT LeftFoot
				{
					OFFSET 2.562200 -7.039590 0.000000
					CHANNELS 3 Zrotation Yrotation Xrotation
					JOINT LeftToeBase
					{
						OFFSET 0.157640 -0.433110 2.322550
						CHANNELS 3 Zrotation Yrotation Xrotation
						End Site
						{
							OFFSET 0.000000 0.000000 0.000000
						}
					}
				}
			}
		}
	}
	JOINT RHipJoint
	{
		OFFSET 0.000000 0.000000 0.000000
		CHANNELS 3 Zrotation Yrotation Xrotation
		JOINT RightUpLeg
		{
			OFFSET -1.305520 -1.794630 0.839290
			CHANNELS 3 Zrotation Yrotation Xrotation
			JOINT RightLeg
			{
				OFFSET -2.542530 -6.985550 0.000000
				CHANNELS 3 Zrotation Yrotation Xrotation
				JOINT RightFoot
				{
					OFFSET -2.568260 -7.056230 0.000000
					CHANNELS 3 Zrotation Yrotation Xrotation
					JOINT RightToeBase
					{
						OFFSET -0.164730 -0.452590 2.363150
						CHANNELS 3 Zrotation Yrotation Xrotation
						End Site
						{
							OFFSET 0.000000 0.000000 0.000000
						}
					}
				}
			}
		}
	}
}
MOTION
Frames: 30
Frame Time: 0.008333
-0.197133 17.314692 -1.442624 152.355009 -82.885663 -138.319564 -10.470055 -1.506619 0.250672 -2.015905 -10.277221 -37.642498 0.927091 2.263309 49.513123 4.085448 26.626702 16.484556 10.927800 -0.000001 -53.700200 7.875288 0.106053 -0.619844 10.625045 6.920320 -13.759428 2.191726 0.564897 7.407373 -1.569126 -6.842306 -5.431281 -0.838700 0.000001 -40.874800
-0.184887 17.313824 -1.459357 150.402738 -82.807438 -136.800951 -10.469509 -1.640884 0.249955 -2.105967 -10.860168 -38.551395 1.001349 2.356257 51.714293 4.106749 26.779862 18.076607 11.558700 0.000000 -52.487700 7.908252 0.135707 -0.758712 10.454276 6.709447 -13.333371 2.154784 0.504577 7.681317 -1.577586 -6.826699 -5.612062 -0.801601 0.000000 -40.855000
-0.172537 17.312947 -1.475564 148.465005 -82.723236 -135.293890 -10.464412 -1.776430 0.238461 -2.233932 -11.385573 -39.486459 1.067859 2.449953 53.893486 4.118729 26.836879 19.529273 12.086700 -0.000000 -51.273000 7.946802 0.165490 -0.888382 10.268270 6.526097 -12.921056 2.113864 0.442391 7.969556 -1.591640 -6.838189 -5.797477 -0.766700 0.000000 -40.839701
-0.160330 17.312063 -1.491353 146.565950 -82.629654 -133.818618 -10.454137 -1.910847 0.217546 -2.400075 -11.853166 -40.449433 1.130080 2.545966 56.048875 4.122198 26.805052 20.799659 12.496500 0.000000 -50.141900 7.992318 0.195380 -1.006778 10.066686 6.371000 -12.534664 2.069237 0.377646 8.284147 -1.610393 -6.870963 -5.990989 -0.732699 0.000000 -40.831801
-0.148522 17.311152 -1.506782 144.728243 -82.523820 -132.393439 -10.438200 -2.042489 0.189580 -2.602876 -12.267167 -41.441885 1.191590 2.645007 58.176354 4.119179 26.703803 21.864019 12.789201 0.000000 -49.268300 8.045766 0.225434 -1.112997 9.849236 6.241084 -12.184314 2.021416 0.309936 8.635281 -1.632553 -6.917531 -6.195563 -0.698300 -0.000000 -40.833500
-0.137118 17.310107 -1.521908 142.967723 -82.404939 -131.034590 -10.416924 -2.169562 0.155376 -2.840962 -12.627433 -42.467161 1.256237 2.748952 60.279682 4.109533 26.535648 22.674282 12.949600 0.000000 -48.476100 8.107725 0.255811 -1.207204 9.616868 6.130524 -11.876549 1.971189 0.239016 9.029974 -1.656596 -6.969736 -6.413201 -0.662201 0.000000 -40.844099
-0.126268 17.308924 -1.536731 141.294526 -82.273036 -129.749613 -10.390487 -2.291902 0.117345 -3.108722 -12.941831 -43.525867 1.326928 2.857604 62.352674 4.095349 26.323005 23.226551 12.991500 -0.000000 -47.835700 8.177691 0.286548 -1.290219 9.371246 6.033920 -11.613231 1.919337 0.165412 9.466984 -1.681127 -7.021770 -6.641063 -0.624300 -0.000000 -40.873400
-0.115954 17.307592 -1.551323 139.693777 -82.128383 -128.523981 -10.358338 -2.410441 0.078388 -3.401349 -13.223262 -44.613235 1.404884 2.969091 64.381254 4.079752 26.098955 23.548945 12.947200 -0.000000 -47.576300 8.256065 0.318073 -1.365594 9.110954 5.935947 -11.394995 1.866923 0.089104 9.947961 -1.703523 -7.060335 -6.880165 -0.583400 0.000000 -40.915300
-0.106055 17.306045 -1.565453 138.190911 -81.976331 -127.383319 -10.322389 -2.526408 0.039974 -3.703823 -13.476931 -45.732183 1.491037 3.083405 66.359642 4.063482 25.872291 23.650338 12.827000 -0.000000 -47.594700 8.338271 0.349949 -1.433552 8.846200 5.842390 -11.210704 1.814709 0.012461 10.451773 -1.724835 -7.095664 -7.117293 -0.542600 0.000000 -40.985200
-0.096363 17.304238 -1.579574 136.683883 -81.811819 -126.233517 -10.279039 -2.639142 0.002036 -4.032523 -13.713555 -46.870413 1.585516 3.198492 68.276864 4.046033 25.646521 23.533737 12.636700 0.000000 -47.569700 8.432896 0.383991 -1.505144 8.557781 5.698998 -11.067894 1.764512 -0.067815 11.002902 -1.735981 -7.075969 -7.370558 -0.495100 0.000000 -41.056599
-0.086777 17.302217 -1.593143 135.250660 -81.645917 -125.147934 -10.232241 -2.752135 -0.033014 -4.354710 -13.939015 -48.032912 1.686406 3.313188 70.118745 4.029713 25.437846 23.268279 12.410000 -0.000000 -47.763700 8.528618 0.418723 -1.576727 8.269485 5.539197 -10.941373 1.716610 -0.146359 11.552745 -1.742967 -7.041567 -7.611213 -0.449100 0.000000 -41.158200
-0.077030 17.299962 -1.606226 133.852734 -81.478943 -124.093223 -10.181081 -2.866129 -0.065536 -4.669811 -14.158422 -49.213235 1.791931 3.425877 71.873720 4.013879 25.241753 22.887858 12.156200 0.000000 -47.997200 8.626863 0.454877 -1.654221 7.977386 5.341527 -10.825164 1.672170 -0.223463 12.098597 -1.742339 -6.974325 -7.841040 -0.403200 -0.000000 -41.281701
-0.066885 17.297451 -1.618742 132.484406 -81.312638 -123.065876 -10.125634 -2.982193 -0.095813 -4.971197 -14.373915 -50.408255 1.899777 3.535159 73.531224 3.998043 25.052306 22.438855 11.887599 0.000000 -48.190600 8.726262 0.492630 -1.740609 7.683673 5.099647 -10.709917 1.632017 -0.298203 12.628278 -1.733119 -6.870308 -8.056180 -0.358300 -0.000000 -41.422401
-0.056253 17.294744 -1.630530 131.163315 -81.149877 -122.082718 -10.066769 -3.101792 -0.124180 -5.247308 -14.585884 -51.616013 2.007060 3.639616 75.079936 3.982074 24.864761 21.981803 11.621600 0.000000 -48.422900 8.823228 0.531652 -1.836871 7.394792 4.819431 -10.583869 1.596572 -0.369009 13.123751 -1.716250 -6.736388 -8.248262 -0.316400 0.000000 -41.589800
-0.044920 17.291836 -1.641608 129.887981 -80.989452 -121.145254 -10.004283 -3.224724 -0.152333 -5.497422 -14.789702 -52.833762 2.111861 3.738688 76.515410 3.963950 24.659940 21.545008 11.357000 -0.000000 -48.512200 8.917802 0.572337 -1.944964 7.109547 4.496123 -10.442834 1.566341 -0.435850 13.582293 -1.690645 -6.565688 -8.419633 -0.277100 -0.000001 -41.768401
-0.032852 17.288747 -1.651739 128.688879 -80.832768 -120.281791 -9.939278 -3.351981 -0.180933 -5.711084 -14.981846 -54.061614 2.211544 3.831457 77.829795 3.943267 24.430544 21.180920 11.107000 -0.000000 -48.609300 9.006033 0.614145 -2.063638 6.834656 4.144329 -10.279256 1.541149 -0.497529 13.990999 -1.658462 -6.370209 -8.563792 -0.242099 -0.000000 -41.968100
-0.019846 17.285450 -1.660998 127.576437 -80.677353 -119.504871 -9.871539 -3.482878 -0.211824 -5.888775 -15.155489 -55.297407 2.304551 3.917706 79.020782 3.918127 24.159063 20.906021 10.868000 -0.000000 -48.624501 9.087837 0.657427 -2.192533 6.568949 3.768674 -10.092841 1.520803 -0.554314 14.351363 -1.619928 -6.149272 -8.684037 -0.210900 0.000000 -42.178201
-0.006171 17.282049 -1.669107 126.595934 -80.525455 -118.852383 -9.803086 -3.617647 -0.244926 -6.019522 -15.304244 -56.546097 2.389684 3.997597 80.087255 3.887691 23.834341 20.738287 10.639100 -0.000000 -48.593800 9.158090 0.700730 -2.327151 6.322419 3.394396 -9.881403 1.504675 -0.605027 14.655038 -1.578878 -5.922785 -8.775996 -0.184900 -0.000000 -42.401001
0.008379 17.278444 -1.676402 125.723833 -80.368156 -118.305497 -9.730420 -3.754130 -0.282241 -6.116768 -15.427252 -57.796854 2.464810 4.069861 81.020610 3.851142 23.450887 20.687422 10.420300 0.000000 -48.635100 9.222539 0.746304 -2.469599 6.079984 3.011830 -9.652295 1.491958 -0.651938 14.921118 -1.533151 -5.675570 -8.851777 -0.161700 0.000001 -42.629900
0.023750 17.274701 -1.682950 124.971090 -80.203249 -117.872789 -9.653023 -3.891149 -0.324155 -6.180449 -15.522134 -59.047500 2.528705 4.134219 81.816167 3.807973 23.003123 20.749498 10.206001 -0.000000 -48.804900 9.281015 0.794421 -2.617443 5.840635 2.634239 -9.408632 1.481558 -0.695449 15.154543 -1.484712 -5.416404 -8.913969 -0.141100 0.000000 -42.864500
0.039662 17.270876 -1.688415 124.380031 -80.036928 -117.587271 -9.573874 -4.029233 -0.368192 -6.193786 -15.586189 -60.308716 2.581385 4.191473 82.474145 3.758082 22.485763 20.907596 9.986000 -0.000001 -49.065700 9.326219 0.842856 -2.763012 5.621120 2.299684 -9.152485 1.472276 -0.734013 15.346645 -1.440000 -5.179952 -8.956658 -0.124899 -0.000000 -43.106301
0.056034 17.266987 -1.692974 123.929763 -79.866223 -117.426799 -9.491061 -4.166444 -0.413635 -6.162495 -15.621928 -61.576917 2.622285 4.241178 82.988876 3.701215 21.897813 21.133872 9.749599 0.000000 -49.371300 9.360898 0.892479 -2.905123 5.415629 2.010828 -8.892874 1.463075 -0.768952 15.511997 -1.399640 -4.967234 -8.988551 -0.111900 0.000000 -43.346600
0.072931 17.263051 -1.697133 123.563816 -79.683366 -117.337154 -9.399699 -4.300090 -0.460762 -6.101970 -15.639566 -62.834148 2.648574 4.280800 83.340939 3.638900 21.254922 21.432064 9.504500 0.000000 -49.967500 9.392866 0.946094 -3.047228 5.205018 1.752144 -8.635800 1.452656 -0.802758 15.669291 -1.361408 -4.764548 -9.018186 -0.100099 -0.000000 -43.590200
0.090037 17.259186 -1.700506 123.307062 -79.499383 -117.333147 -9.303771 -4.430718 -0.505173 -5.993710 -15.637354 -64.098613 2.662624 4.312237 83.537182 3.570159 20.548168 21.740439 9.226700 -0.000000 -50.437700 9.414161 1.000577 -3.180815 5.011086 1.558687 -8.387936 1.440431 -0.833606 15.811004 -1.331933 -4.607977 -9.042211 -0.091100 0.000000 -43.820800
0.107625 17.255367 -1.703726 123.072766 -79.306060 -117.335070 -9.197131 -4.555848 -0.547327 -5.857792 -15.630575 -65.344541 2.660315 4.331548 83.550204 3.498164 19.808648 22.087913 8.940000 -0.000000 -51.333100 9.435219 1.059677 -3.312668 4.808453 1.399370 -8.153553 1.425420 -0.864439 15.956175 -1.307044 -4.473773 -9.069259 -0.082800 0.000000 -44.055399
0.125268 17.251734 -1.706598 122.867598 -79.112374 -117.340050 -9.082895 -4.675135 -0.583891 -5.685451 -15.617506 -66.585580 2.644573 4.340617 83.388596 3.421780 19.031083 22.408480 8.623600 -0.000000 -52.023900 9.451157 1.120676 -3.437140 4.612157 1.292368 -7.938590 1.407574 -0.893967 16.099771 -1.290548 -4.383084 -9.096810 -0.076000 0.000000 -44.273100
0.143038 17.248376 -1.709324 122.648235 -78.919510 -117.305471 -8.959530 -4.787867 -0.613397 -5.482628 -15.606387 -67.812278 2.613744 4.337493 83.038257 3.343763 18.242207 22.717433 8.296100 0.000000 -52.749600 9.464755 1.184167 -3.556133 4.415921 1.225127 -7.746607 1.386790 -0.922862 16.245688 -1.281311 -4.330019 -9.125883 -0.070400 -0.000000 -44.474500
0.160933 17.245353 -1.712024 122.387825 -78.729780 -117.204436 -8.827107 -4.893225 -0.635084 -5.255374 -15.599248 -69.021991 2.568324 4.321990 82.497290 3.265265 17.457705 23.001627 7.963500 0.000001 -53.397000 9.477224 1.249841 -3.670331 4.218467 1.188110 -7.580332 1.363340 -0.951236 16.394278 -1.278487 -4.310445 -9.155886 -0.065700 0.000000 -44.657499
0.178789 17.242776 -1.714587 122.085809 -78.548852 -117.033305 -8.687795 -4.991023 -0.647561 -5.003805 -15.593941 -70.218049 2.509781 4.294846 81.769856 3.187298 16.691070 23.248149 7.630800 -0.000000 -53.758300 9.486245 1.316004 -3.778395 4.027096 1.180513 -7.441480 1.337941 -0.978184 16.539059 -1.282359 -4.326957 -9.182876 -0.062400 0.000000 -44.812000
0.196808 17.240653 -1.717523 121.690946 -78.370870 -116.745433 -8.537821 -5.079343 -0.652043 -4.749484 -15.597483 -71.382133 2.435981 4.253430 80.841077 3.113576 15.977224 23.500803 7.327401 0.000000 -54.344600 9.500012 1.384828 -3.885683 3.821426 1.168377 -7.333867 1.310841 -1.005284 16.689012 -1.287623 -4.350567 -9.209705 -0.059400 -0.000001 -44.958299
